HIERARCHY
ROOT joint_Root
{
	OFFSET 0.0 0.0 0.0
	CHANNELS 6 Xposition Yposition Zposition Zrotation Xrotation Yrotation 
	JOINT Hips
	{
		OFFSET -0.726466 93.3139 -2.00062
		CHANNELS 6 Xposition Yposition Zposition Zrotation Xrotation Yrotation 
		JOINT Spine
		{
			OFFSET 15.7357 0.0 0.0
			CHANNELS 6 Xposition Yposition Zposition Zrotation Xrotation Yrotation 
			JOINT Chest
			{
				OFFSET 8.98455 -0.406207 0.0
				CHANNELS 6 Xposition Yposition Zposition Zrotation Xrotation Yrotation 
				JOINT Neck
				{
					OFFSET 16.3773 0.0 0.0
					CHANNELS 6 Xposition Yposition Zposition Zrotation Xrotation Yrotation 
					JOINT Head
					{
						OFFSET 6.45672 0.0 0.0
						CHANNELS 6 Xposition Yposition Zposition Zrotation Xrotation Yrotation 
						End Site
						{
							OFFSET 0.0 0.0 0.0
						}
					}
				}
				JOINT Shoulder_L
				{
					OFFSET 12.9942 -0.242716 4.98039
					CHANNELS 6 Xposition Yposition Zposition Zrotation Xrotation Yrotation 
					JOINT UpperArm_L
					{
						OFFSET 5.34809 0.0 0.0
						CHANNELS 6 Xposition Yposition Zposition Zrotation Xrotation Yrotation 
						JOINT LowerArm_L
						{
							OFFSET 24.3286 1.87007e-05 0.0
							CHANNELS 6 Xposition Yposition Zposition Zrotation Xrotation Yrotation 
							JOINT Hand_L
							{
								OFFSET 22.2916 0.0 0.0
								CHANNELS 6 Xposition Yposition Zposition Zrotation Xrotation Yrotation 
								End Site
								{
									OFFSET 0.0 0.0 0.0
								}
							}
						}
					}
				}
				JOINT Shoulder_R
				{
					OFFSET 12.9945 -0.242716 -4.98039
					CHANNELS 6 Xposition Yposition Zposition Zrotation Xrotation Yrotation 
					JOINT UpperArm_R
					{
						OFFSET -5.34813 0.0 0.0
						CHANNELS 6 Xposition Yposition Zposition Zrotation Xrotation Yrotation 
						JOINT LowerArm_R
						{
							OFFSET -24.3289 0.000322201 0.0
							CHANNELS 6 Xposition Yposition Zposition Zrotation Xrotation Yrotation 
							JOINT Hand_R
							{
								OFFSET -22.2915 -0.000108084 0.0
								CHANNELS 6 Xposition Yposition Zposition Zrotation Xrotation Yrotation 
								End Site
								{
									OFFSET 0.0 0.0 0.0
								}
							}
						}
					}
				}
			}
		}
		JOINT UpperLeg_L
		{
			OFFSET -2.19248 -6.46944 0.0
			CHANNELS 6 Xposition Yposition Zposition Zrotation Xrotation Yrotation 
			JOINT LowerLeg_L
			{
				OFFSET 39.0811 0.0 -1.23785e-05
				CHANNELS 6 Xposition Yposition Zposition Zrotation Xrotation Yrotation 
				JOINT Foot_L
				{
					OFFSET 40.9854 0.0 -1.26872e-05
					CHANNELS 6 Xposition Yposition Zposition Zrotation Xrotation Yrotation 
					JOINT Toes_L
					{
						OFFSET 11.7543 0.0 0.0
						CHANNELS 6 Xposition Yposition Zposition Zrotation Xrotation Yrotation 
						End Site
						{
							OFFSET 0.0 0.0 0.0
						}
					}
				}
			}
		}
		JOINT UpperLeg_R
		{
			OFFSET -2.19251 6.46944 0.0
			CHANNELS 6 Xposition Yposition Zposition Zrotation Xrotation Yrotation 
			JOINT LowerLeg_R
			{
				OFFSET -39.0811 -0.00228153 -0.0401928
				CHANNELS 6 Xposition Yposition Zposition Zrotation Xrotation Yrotation 
				JOINT Foot_R
				{
					OFFSET -40.9854 0.0 0.0
					CHANNELS 6 Xposition Yposition Zposition Zrotation Xrotation Yrotation 
					JOINT Toes_R
					{
						OFFSET -11.7543 0.0 0.0
						CHANNELS 6 Xposition Yposition Zposition Zrotation Xrotation Yrotation 
						End Site
						{
							OFFSET 0.0 0.0 0.0
						}
					}
				}
			}
		}
	}
}
MOTION
Frames:	4
Frame Time:	0.0333333
0.000000 0.000000 0.000000 0.000000 0.000000 -0.000000 -0.451677 92.218000 -1.456330 87.822600 -1.467500 3.254640 15.735700 0.000005 -0.000001 86.151600 87.395300 -85.673700 8.984550 -0.406207 -0.000000 -2.566520 -0.392597 0.946895 16.377300 -0.000001 -0.000001 -1.970510 -3.058830 1.503820 6.456720 -0.000001 -0.000000 -5.493870 -2.820960 -1.098110 12.994200 -0.242716 4.980390 -84.103400 -11.648600 -62.909200 5.348090 -0.000007 -0.000001 -51.710700 -49.128700 -109.335000 24.328600 0.000019 0.000005 3.564790 1.873950 -62.304300 22.291600 -0.000001 0.000005 20.981200 5.619650 -12.596000 12.994500 -0.242716 -4.980390 93.391700 -7.120050 -64.445300 -5.348130 -0.000001 -0.000004 -57.854000 -44.118600 -121.307000 -24.328900 0.000322 -0.000009 -1.589480 -1.196230 -53.022900 -22.291500 -0.000108 -0.000004 30.405100 5.579020 -10.159800 -2.192480 -6.469440 -0.000000 -169.768000 -14.317300 -1.803190 39.081100 -0.000007 -0.000012 -0.158831 0.422113 20.620300 40.985400 -0.000006 -0.000013 -5.602830 2.454720 -63.995700 11.754300 -0.000000 0.000003 -0.000043 -0.000495 -16.596800 -2.192510 6.469440 -0.000001 174.706000 19.055900 179.314000 -39.081100 -0.002282 -0.040193 0.041036 -0.108902 19.101200 -40.985400 0.000008 0.000006 -0.551878 1.590520 -63.221700 -11.754300 -0.000006 -0.000006 -0.006000 -0.070839 -19.456100
0.000000 0.000000 0.000000 0.000000 0.000000 -0.000000 -0.445084 92.225300 -1.543130 87.822600 -1.404020 3.197490 15.735700 0.000005 -0.000001 85.893100 87.396800 -85.392000 8.984550 -0.406207 -0.000000 -2.570930 -0.417943 0.992739 16.377300 -0.000001 -0.000001 -2.028780 -3.104410 1.459370 6.456720 -0.000001 -0.000000 -5.581660 -2.854640 -1.109530 12.994200 -0.242716 4.980390 -84.055000 -11.730900 -62.879500 5.348090 -0.000007 -0.000001 -51.492400 -49.584700 -110.969000 24.328600 0.000019 0.000005 3.803880 2.019050 -62.080800 22.291600 -0.000001 0.000005 20.592200 5.620050 -12.623400 12.994500 -0.242716 -4.980390 93.463400 -7.232410 -64.324700 -5.348130 -0.000001 -0.000004 -57.245400 -44.355300 -122.745000 -24.328900 0.000322 -0.000009 -1.685310 -1.228910 -53.890700 -22.291500 -0.000108 -0.000004 31.215000 5.584790 -10.472000 -2.192480 -6.469440 -0.000000 -169.806000 -14.252200 -1.947890 39.081100 -0.000007 -0.000012 -0.160309 0.425899 20.626600 40.985400 -0.000006 -0.000013 -5.598240 2.411320 -63.933000 11.754300 -0.000000 0.000003 -0.000038 -0.000445 -16.594900 -2.192510 6.469440 -0.000001 174.738000 19.026900 179.207000 -39.081100 -0.002282 -0.040193 0.039773 -0.105429 19.072000 -40.985400 0.000008 0.000006 -0.654719 1.561270 -63.141300 -11.754300 -0.000006 -0.000006 -0.006162 -0.072304 -19.515900
0.000000 0.000000 0.000000 0.000000 0.000000 -0.000000 -0.454747 92.240900 -1.626100 87.807700 -1.373540 3.181290 15.735700 0.000005 -0.000001 85.357100 87.399100 -84.835900 8.984550 -0.406207 -0.000000 -2.578920 -0.467970 1.031880 16.377300 -0.000001 -0.000001 -1.961760 -3.071400 1.441590 6.456720 -0.000001 -0.000000 -5.722420 -2.818320 -1.075460 12.994200 -0.242716 4.980390 -83.987700 -11.797300 -62.745000 5.348090 -0.000007 -0.000001 -51.843100 -49.739600 -112.127000 24.328600 0.000019 0.000005 3.741620 2.018580 -61.692200 22.291600 -0.000001 0.000005 20.232600 5.619890 -12.612700 12.994500 -0.242716 -4.980390 93.495000 -7.270950 -64.239500 -5.348130 -0.000001 -0.000004 -56.490500 -44.866700 -123.456000 -24.328900 0.000322 -0.000009 -1.624060 -1.178030 -54.032500 -22.291500 -0.000108 -0.000004 31.069800 5.588990 -10.705200 -2.192480 -6.469440 -0.000000 -169.807000 -14.285700 -2.009820 39.081100 -0.000007 -0.000012 -0.158451 0.422012 20.579600 40.985400 -0.000006 -0.000013 -5.575790 2.456520 -63.842400 11.754300 -0.000000 0.000003 -0.000042 -0.000484 -16.596400 -2.192510 6.469440 -0.000001 174.785000 19.115800 179.139000 -39.081100 -0.002282 -0.040193 0.040025 -0.106254 19.055700 -40.985400 0.000008 0.000006 -0.592790 1.562760 -63.043600 -11.754300 -0.000006 -0.000006 -0.006158 -0.072261 -19.514100
0.000000 0.000000 0.000000 0.000000 0.000000 -0.000000 -0.439632 92.243500 -1.667630 87.813000 -1.438740 3.189440 15.735700 0.000005 -0.000001 85.876800 87.394000 -85.338100 8.984550 -0.406207 -0.000000 -2.565330 -0.423175 1.068020 16.377300 -0.000001 -0.000001 -1.931540 -3.056470 1.503120 6.456720 -0.000001 -0.000000 -5.698040 -2.794830 -1.087740 12.994200 -0.242716 4.980390 -83.974500 -11.773600 -62.647100 5.348090 -0.000007 -0.000001 -52.697500 -49.614200 -112.837000 24.328600 0.000019 0.000005 3.170430 1.752410 -61.097300 22.291600 -0.000001 0.000005 20.200500 5.618820 -12.539700 12.994500 -0.242716 -4.980390 93.531100 -7.291950 -64.072400 -5.348130 -0.000001 -0.000004 -55.853600 -45.471200 -123.569000 -24.328900 0.000322 -0.000009 -1.381680 -1.025940 -53.387000 -22.291500 -0.000108 -0.000004 30.273500 5.590890 -10.812200 -2.192480 -6.469440 -0.000000 -169.814000 -14.376300 -2.022460 39.081100 -0.000007 -0.000012 -0.159172 0.423726 20.588800 40.985400 -0.000006 -0.000013 -5.568500 2.436150 -63.818200 11.754300 -0.000000 0.000003 -0.000036 -0.000426 -16.594200 -2.192510 6.469440 -0.000001 174.793000 19.029600 179.088000 -39.081100 -0.002282 -0.040193 0.040383 -0.107195 19.071400 -40.985400 0.000008 0.000006 -0.600364 1.538220 -63.010500 -11.754300 -0.000006 -0.000006 -0.006084 -0.071593 -19.486900
